<svg xmlns="http://www.w3.org/2000/svg" width="1280" height="720" viewBox="0 0 1280 720" fill="none">
  <defs>
    <linearGradient id="bg" x1="80" y1="40" x2="1180" y2="680" gradientUnits="userSpaceOnUse">
      <stop stop-color="#E0F2FE" />
      <stop offset="0.55" stop-color="#EEF2FF" />
      <stop offset="1" stop-color="#FFF1F2" />
    </linearGradient>
    <linearGradient id="card" x1="220" y1="110" x2="1040" y2="610" gradientUnits="userSpaceOnUse">
      <stop stop-color="#FFFFFF" />
      <stop offset="1" stop-color="#F8FAFC" />
    </linearGradient>
    <linearGradient id="accent" x1="260" y1="210" x2="985" y2="540" gradientUnits="userSpaceOnUse">
      <stop stop-color="#3B82F6" />
      <stop offset="0.5" stop-color="#6366F1" />
      <stop offset="1" stop-color="#F25561" />
    </linearGradient>
  </defs>

  <rect width="1280" height="720" rx="36" fill="url(#bg)" />
  <rect x="150" y="84" width="980" height="552" rx="34" fill="url(#card)" stroke="#CBD5E1" stroke-width="2" />

  <text x="640" y="170" text-anchor="middle" fill="#0F172A" font-family="Arial, sans-serif" font-size="44" font-weight="700">
    Rate Limiting Simulations Lab
  </text>
  <text x="640" y="210" text-anchor="middle" fill="#475569" font-family="Arial, sans-serif" font-size="22">
    Placeholder screenshot for the landing page or app overview
  </text>

  <rect x="235" y="260" width="260" height="126" rx="22" fill="#EFF6FF" stroke="#93C5FD" stroke-width="2" />
  <rect x="510" y="260" width="260" height="126" rx="22" fill="#ECFDF5" stroke="#6EE7B7" stroke-width="2" />
  <rect x="785" y="260" width="260" height="126" rx="22" fill="#F5F3FF" stroke="#C4B5FD" stroke-width="2" />

  <text x="365" y="312" text-anchor="middle" fill="#1D4ED8" font-family="Arial, sans-serif" font-size="26" font-weight="700">
    Token Bucket
  </text>
  <text x="640" y="312" text-anchor="middle" fill="#047857" font-family="Arial, sans-serif" font-size="26" font-weight="700">
    Fixed Window
  </text>
  <text x="915" y="312" text-anchor="middle" fill="#7C3AED" font-family="Arial, sans-serif" font-size="26" font-weight="700">
    Sliding Window
  </text>

  <rect x="250" y="455" width="780" height="74" rx="22" fill="url(#accent)" opacity="0.12" />
  <path d="M280 505C330 460 380 470 430 492C480 514 530 526 580 500C630 474 680 454 730 476C780 498 830 538 880 520C930 502 960 470 1000 452" stroke="url(#accent)" stroke-width="8" stroke-linecap="round" />

  <text x="640" y="590" text-anchor="middle" fill="#64748B" font-family="Arial, sans-serif" font-size="20">
    Replace this file with a real product screenshot when ready
  </text>
</svg>
